<?xml version="1.0" encoding="UTF-8"?>
<!DOCTYPE svg PUBLIC "-//W3C//DTD SVG 1.1//EN" "http://www.w3.org/Graphics/SVG/1.1/DTD/svg11.dtd">
<!-- Creator: CorelDRAW -->
<svg xmlns="http://www.w3.org/2000/svg" xml:space="preserve" width="141.309mm" height="180.622mm" version="1.1" style="shape-rendering:geometricPrecision; text-rendering:geometricPrecision; image-rendering:optimizeQuality; fill-rule:evenodd; clip-rule:evenodd"
viewBox="0 0 14130.86 18062.18"
 xmlns:xlink="http://www.w3.org/1999/xlink"
 xmlns:xodm="http://www.corel.com/coreldraw/odm/2003">
 <defs>
  <style type="text/css">
   <![CDATA[
    .fil0 {fill:#F34500;fill-rule:nonzero}
   ]]>
  </style>
 </defs>
 <g id="Capa_x0020_1">
  <metadata id="CorelCorpID_0Corel-Layer"/>
  <g id="_2110925484240">
   <path class="fil0" d="M14109.99 15161.09l-924.11 -14656.4c-17.78,-282.08 -251.77,-501.88 -534.54,-501.88l-2584.78 0c-295.86,0 -535.64,239.78 -535.64,535.64l0 2993.37c0,1361.91 -1107.94,2469.86 -2469.72,2469.86 -1361.91,0 -2469.86,-1107.94 -2469.86,-2469.86l0 -2993.37c0,-295.86 -239.78,-535.64 -535.51,-535.64l-2584.92 0c-282.64,0 -516.63,219.8 -534.54,501.88l-923.97 14656.4c-47.27,749.93 220.62,1494.21 734.91,2041.98 514.29,547.77 1240.23,861.96 1991.54,861.96l8644.56 0c751.44,0 1477.26,-314.19 1991.54,-861.96 514.42,-547.77 782.31,-1292.05 735.05,-2041.98l-0.01 0zm-2726.58 1832.65l-8644.43 0c-463.43,0 -893.52,-186.04 -1210.74,-523.93 -317.22,-337.89 -475.84,-778.73 -446.76,-1241.2l892.42 -14154.52 1546.29 0.01 0 2457.73c0,1952.54 1588.46,3541.01 3541.01,3541.01 1952.54,0 3541.01,-1588.46 3541.01,-3541.01l0 -2457.73 1546.28 0 892.42 14154.52c29.08,462.47 -129.54,903.3 -446.76,1241.2 -317.22,337.89 -747.31,523.93 -1210.74,523.93l0 -0.01zm0 0z"/>
   <path class="fil0" d="M10373.86 12885.81c-256.73,146.76 -345.89,474.05 -199.13,730.77 136.98,239.64 136.15,525.31 -2.48,763.98 -138.49,238.81 -385.99,381.3 -662.01,381.3l-1656.54 0.01 86.82 -86.68c209.19,-209.19 209.19,-548.32 0,-757.51 -209.19,-209.19 -548.32,-209.19 -757.51,0l-1001.14 1001.14c-100.46,100.32 -156.82,236.61 -156.82,378.68 0,142.08 56.36,278.36 156.82,378.82l1001.14 1001.01c104.59,104.59 241.71,156.82 378.68,156.82 137.11,0 274.23,-52.23 378.68,-156.82 209.19,-209.19 209.19,-548.32 0,-757.51l-86.68 -86.68 1656.55 0.02c662.29,0 1256.22,-342.03 1588.6,-915.02 332.38,-572.85 334.59,-1258.15 5.79,-1833.2 -146.76,-256.87 -474.05,-346.03 -730.77,-199.13zm0 0z"/>
   <path class="fil0" d="M6434.87 9369.2c143.73,-238.54 384.75,-372.48 664.35,-370.42 278.5,3.17 517.59,143.59 655.81,385.44l907.16 1586.81 -153.38 -41.07c-285.39,-76.48 -579.47,93.02 -655.95,378.68 -76.62,285.81 92.88,579.46 378.68,656.08l1367.56 366.42c45.61,12.13 92.19,18.19 138.63,18.19 93.16,0 185.62,-24.39 267.75,-71.8 123.06,-70.97 212.77,-187.96 249.56,-325.22l366.42 -1367.56c76.62,-285.67 -93.02,-579.33 -378.68,-655.95 -285.39,-76.48 -579.47,93.02 -655.95,378.68l-22.32 83.37 -879.46 -1538.3c-326.87,-571.75 -915.16,-917.5 -1573.58,-924.94 -658.29,-8.41 -1254.43,324.8 -1594.25,888.83 -152.55,253.42 -70.83,582.63 182.45,735.18 253.42,152.69 582.5,70.97 735.18,-182.45l0.02 0.03zm0 0z"/>
   <path class="fil0" d="M5486.09 10596.2c-74,-286.49 -366.56,-458.61 -652.64,-384.47l-1370.73 354.29c-286.36,74 -458.61,366.28 -384.47,652.64 74,286.36 366.14,458.61 652.5,384.47l128.02 -33.07 -890.63 1478.77c-346.3,574.92 -355.95,1266.97 -25.77,1851.26 330.18,584.29 927.83,933.07 1599.08,933.07 295.73,0 535.51,-239.78 535.51,-535.64 0,-295.73 -239.78,-535.64 -535.51,-535.64 -279.74,0 -528.89,-145.38 -666.42,-388.88 -137.67,-243.5 -133.67,-531.92 10.75,-771.43l889.11 -1476.29 28.39 109.83c62.43,241.43 279.88,401.7 518.14,401.56 44.51,0 89.57,-5.51 134.5,-17.09 286.36,-74 458.61,-366.28 384.47,-652.64l-354.3 -1370.74zm0 0z"/>
  </g>
 </g>
</svg>
