<?xml version="1.0" encoding="UTF-8"?>
<!DOCTYPE svg PUBLIC "-//W3C//DTD SVG 1.1//EN" "http://www.w3.org/Graphics/SVG/1.1/DTD/svg11.dtd">
<!-- Creator: CorelDRAW -->
<svg xmlns="http://www.w3.org/2000/svg" xml:space="preserve" width="143.425mm" height="103.801mm" version="1.1" style="shape-rendering:geometricPrecision; text-rendering:geometricPrecision; image-rendering:optimizeQuality; fill-rule:evenodd; clip-rule:evenodd"
viewBox="0 0 14342.52 10380.12"
 xmlns:xlink="http://www.w3.org/1999/xlink"
 xmlns:xodm="http://www.corel.com/coreldraw/odm/2003">
 <defs>
  <style type="text/css">
   <![CDATA[
    .fil0 {fill:#F34500}
   ]]>
  </style>
 </defs>
 <g id="Capa_x0020_1">
  <metadata id="CorelCorpID_0Corel-Layer"/>
  <g id="_2075491573632">
   <polygon class="fil0" points="550.88,42.75 381.56,42.75 381.56,76.62 313.83,76.62 313.83,110.48 246.1,110.48 246.1,144.34 212.24,144.34 212.24,178.21 178.37,178.21 178.37,212.07 144.51,212.07 144.51,245.94 110.65,245.94 110.65,279.8 76.78,279.8 76.78,347.53 42.92,347.53 42.92,449.12 9.05,449.12 9.05,8407.13 42.92,8407.13 42.92,8508.72 76.78,8508.72 76.78,8576.45 110.65,8576.45 110.65,8610.31 144.51,8610.31 144.51,8644.17 178.37,8644.17 178.37,8678.04 212.24,8678.04 212.24,8711.9 246.1,8711.9 246.1,8745.77 313.83,8745.77 313.83,8779.63 381.56,8779.63 381.56,8813.49 1668.38,8813.49 1668.38,8745.77 1702.25,8745.77 1702.25,8610.31 1736.11,8610.31 1736.11,8474.86 1769.98,8474.86 1769.98,8407.13 1803.84,8407.13 1803.84,8305.54 1837.7,8305.54 1837.7,8237.81 1871.57,8237.81 1871.57,8170.08 1905.43,8170.08 1905.43,8102.35 1939.29,8102.35 1939.29,8068.49 1973.16,8068.49 1973.16,8000.76 2007.02,8000.76 2007.02,7966.9 2040.89,7966.9 2040.89,7899.17 2074.75,7899.17 2074.75,7865.31 2108.61,7865.31 2108.61,7831.44 2142.48,7831.44 2142.48,7797.58 2176.34,7797.58 2176.34,7763.71 2210.21,7763.71 2210.21,7729.85 2244.07,7729.85 2244.07,7695.99 2277.93,7695.99 2277.93,7662.12 2311.8,7662.12 2311.8,7628.26 2345.66,7628.26 2345.66,7594.39 2379.52,7594.39 2379.52,7560.53 2413.39,7560.53 2413.39,7526.67 2481.12,7526.67 2481.12,7492.8 2514.98,7492.8 2514.98,7458.94 2582.71,7458.94 2582.71,7425.08 2616.57,7425.08 2616.57,7391.21 2684.3,7391.21 2684.3,7357.35 2752.03,7357.35 2752.03,7323.48 2819.76,7323.48 2819.76,7289.62 2921.35,7289.62 2921.35,7255.76 3022.94,7255.76 3022.94,7221.89 3158.39,7221.89 3158.39,7188.03 3327.71,7188.03 3327.71,7154.16 3869.53,7154.16 3869.53,7188.03 4038.85,7188.03 4038.85,7221.89 4174.31,7221.89 4174.31,7255.76 4275.9,7255.76 4275.9,7289.62 4343.63,7289.62 4343.63,7323.48 4445.22,7323.48 4445.22,7357.35 4512.95,7357.35 4512.95,7391.21 4546.81,7391.21 4546.81,7425.08 4614.54,7425.08 4614.54,7458.94 4682.27,7458.94 4682.27,7492.8 4716.13,7492.8 4716.13,7526.67 4750,7526.67 4750,7560.53 4817.72,7560.53 4817.72,7594.39 4851.59,7594.39 4851.59,7628.26 4885.45,7628.26 4885.45,7662.12 4919.31,7662.12 4919.31,7695.99 4953.18,7695.99 4953.18,7729.85 4987.04,7729.85 4987.04,7763.71 5020.91,7763.71 5020.91,7797.58 5054.77,7797.58 5054.77,7831.44 5088.63,7831.44 5088.63,7865.31 5122.5,7865.31 5122.5,7933.03 5156.36,7933.03 5156.36,7966.9 5190.23,7966.9 5190.23,8000.76 5224.09,8000.76 5224.09,8068.49 5257.95,8068.49 5257.95,8136.22 5291.82,8136.22 5291.82,8170.08 5325.68,8170.08 5325.68,8237.81 5359.55,8237.81 5359.55,8339.4 5393.41,8339.4 5393.41,8407.13 5427.27,8407.13 5427.27,8508.72 5461.14,8508.72 5461.14,8610.31 5495,8610.31 5495,8779.63 5528.86,8779.63 5528.86,8813.49 7899.34,8813.49 7899.34,8779.63 8000.93,8779.63 8000.93,8745.77 8034.79,8745.77 8034.79,8711.9 8102.52,8711.9 8102.52,8678.04 8136.38,8678.04 8136.38,8644.17 8170.25,8644.17 8170.25,8576.45 8204.11,8576.45 8204.11,8542.58 8237.97,8542.58 8237.97,8440.99 8271.84,8440.99 8271.84,415.25 8237.97,415.25 8237.97,313.66 8204.11,313.66 8204.11,279.8 8170.25,279.8 8170.25,212.07 8136.38,212.07 8136.38,178.21 8102.52,178.21 8102.52,144.34 8034.79,144.34 8034.79,110.48 8000.93,110.48 8000.93,76.62 7933.2,76.62 7933.2,42.75 7763.88,42.75 7763.88,8.89 550.88,8.89 "/>
   <path class="fil0" d="M10472.99 3361.41l33.86 0 0 -33.86 1354.56 0 0 33.86 67.73 0 0 33.87 33.86 0 0 33.86 33.86 0 0 33.86 33.87 0 0 33.87 33.86 0 0 33.86 33.86 0 0 33.86 33.87 0 0 67.73 33.86 0 0 33.87 33.87 0 0 67.72 33.86 0 0 33.87 33.86 0 0 33.86 33.87 0 0 67.73 33.86 0 0 33.86 33.87 0 0 67.73 33.86 0 0 33.86 33.86 0 0 33.87 33.87 0 0 67.73 33.86 0 0 33.86 33.86 0 0 33.86 33.87 0 0 67.73 33.86 0 0 33.87 33.87 0 0 67.72 33.86 0 0 33.87 33.86 0 0 33.86 33.87 0 0 67.73 33.86 0 0 33.86 33.87 0 0 33.87 33.86 0 0 67.72 33.86 0 0 33.87 33.87 0 0 67.73 33.86 0 0 33.86 33.87 0 0 33.86 33.86 0 0 67.73 33.86 0 0 33.87 33.87 0 0 67.72 33.86 0 0 33.87 33.86 0 0 33.86 33.87 0 0 67.73 33.86 0 0 33.86 33.87 0 0 67.73 33.86 0 0 33.86 33.86 0 0 67.73 33.87 0 0 101.59 33.86 0 0 135.46 -2878.43 0 0 -33.87 -33.86 0 0 -2133.42zm-1185.24 -1117.51l-101.59 0 0 33.87 -101.59 0 0 33.86 -33.86 0 0 33.87 -33.87 0 0 33.86 -33.86 0 0 33.86 -33.87 0 0 33.87 -33.86 0 0 33.86 -33.86 0 0 67.73 -33.87 0 0 101.59 -33.86 0 0 5756.86 33.86 0 0 101.59 33.87 0 0 33.86 33.86 0 0 67.73 33.86 0 0 33.86 33.87 0 0 33.87 33.86 0 0 33.86 33.87 0 0 33.87 67.72 0 0 33.86 67.73 0 0 33.86 203.19 0 0 -101.59 33.86 0 0 -169.32 33.86 0 0 -101.59 33.87 0 0 -67.73 33.86 0 0 -101.59 33.86 0 0 -67.73 33.87 0 0 -67.72 33.86 0 0 -33.87 33.87 0 0 -67.73 33.86 0 0 -33.86 33.86 0 0 -67.73 33.87 0 0 -33.86 33.86 0 0 -33.86 33.87 0 0 -67.73 33.86 0 0 -33.87 33.86 0 0 -33.86 33.87 0 0 -33.86 33.86 0 0 -33.87 33.86 0 0 -33.86 67.73 0 0 -33.87 33.87 0 0 -33.86 33.86 0 0 -33.86 33.86 0 0 -33.87 67.73 0 0 -33.86 33.87 0 0 -33.86 67.72 0 0 -33.87 67.73 0 0 -33.86 67.73 0 0 -33.87 67.73 0 0 -33.86 101.59 0 0 -33.86 101.59 0 0 -33.87 101.59 0 0 -33.86 169.32 0 0 -33.87 575.69 0 0 33.87 169.32 0 0 33.86 135.45 0 0 33.87 101.59 0 0 33.86 67.73 0 0 33.86 67.73 0 0 33.87 67.73 0 0 33.86 67.72 0 0 33.87 67.73 0 0 33.86 33.87 0 0 33.86 67.72 0 0 33.87 33.87 0 0 33.86 33.86 0 0 33.86 67.73 0 0 33.87 33.86 0 0 33.86 33.87 0 0 33.87 33.86 0 0 33.86 33.86 0 0 33.86 33.87 0 0 33.87 33.86 0 0 33.86 33.87 0 0 67.73 33.86 0 0 33.86 33.86 0 0 33.87 33.87 0 0 67.72 33.86 0 0 33.87 33.87 0 0 67.73 33.86 0 0 67.72 33.86 0 0 67.73 33.87 0 0 67.73 33.86 0 0 101.59 33.86 0 0 101.59 33.87 0 0 135.46 33.86 0 0 135.45 745.01 0 0 -33.86 67.73 0 0 -33.86 67.72 0 0 -33.87 33.87 0 0 -33.86 67.72 0 0 -67.73 33.87 0 0 -33.86 33.86 0 0 -67.73 33.87 0 0 -67.73 33.86 0 0 -3149.34 -33.86 0 0 -135.45 -33.87 0 0 -101.6 -33.86 0 0 -101.59 -33.87 0 0 -67.72 -33.86 0 0 -67.73 -33.86 0 0 -67.73 -33.87 0 0 -67.73 -33.86 0 0 -67.73 -33.86 0 0 -67.72 -33.87 0 0 -33.87 -33.86 0 0 -67.73 -33.87 0 0 -33.86 -33.86 0 0 -67.73 -33.86 0 0 -33.86 -33.87 0 0 -33.86 -33.86 0 0 -67.73 -33.87 0 0 -33.87 -33.86 0 0 -33.86 -33.86 0 0 -67.73 -33.87 0 0 -33.86 -33.86 0 0 -33.87 -33.87 0 0 -67.72 -33.86 0 0 -33.87 -33.86 0 0 -33.86 -33.87 0 0 -67.73 -33.86 0 0 -33.86 -33.86 0 0 -33.87 -33.87 0 0 -67.72 -33.86 0 0 -33.87 -33.87 0 0 -33.86 -33.86 0 0 -67.73 -33.86 0 0 -33.86 -33.87 0 0 -33.87 -33.86 0 0 -67.72 -33.87 0 0 -33.87 -33.86 0 0 -33.86 -33.86 0 0 -67.73 -33.87 0 0 -33.86 -33.86 0 0 -33.87 -33.86 0 0 -67.73 -33.87 0 0 -33.86 -33.86 0 0 -33.86 -33.87 0 0 -67.73 -33.86 0 0 -33.87 -33.86 0 0 -33.86 -33.87 0 0 -67.73 -33.86 0 0 -33.86 -33.87 0 0 -33.86 -33.86 0 0 -33.87 -33.86 0 0 -67.73 -33.87 0 0 -33.86 -33.86 0 0 -33.86 -33.87 0 0 -33.87 -33.86 0 0 -33.86 -33.86 0 0 -33.87 -33.87 0 0 -33.86 -33.86 0 0 -33.86 -33.86 0 0 -33.87 -33.87 0 0 -33.86 -33.86 0 0 -33.86 -33.87 0 0 -33.87 -67.72 0 0 -33.86 -101.6 0 0 -33.87 -135.45 0 0 -33.86 -2675.25 0 0 33.86z"/>
   <polygon class="fil0" points="3564.76,7831.44 3293.85,7831.44 3293.85,7865.31 3192.26,7865.31 3192.26,7899.17 3090.67,7899.17 3090.67,7933.03 3022.94,7933.03 3022.94,7966.9 2955.21,7966.9 2955.21,8000.76 2887.48,8000.76 2887.48,8034.62 2853.62,8034.62 2853.62,8068.49 2819.76,8068.49 2819.76,8102.35 2752.03,8102.35 2752.03,8136.22 2718.16,8136.22 2718.16,8170.08 2684.3,8170.08 2684.3,8203.94 2650.44,8203.94 2650.44,8237.81 2616.57,8237.81 2616.57,8271.67 2582.71,8271.67 2582.71,8339.4 2548.84,8339.4 2548.84,8373.26 2514.98,8373.26 2514.98,8440.99 2481.12,8440.99 2481.12,8474.86 2447.25,8474.86 2447.25,8542.58 2413.39,8542.58 2413.39,8644.17 2379.52,8644.17 2379.52,8745.77 2345.66,8745.77 2345.66,8881.22 2311.8,8881.22 2311.8,9287.59 2345.66,9287.59 2345.66,9456.91 2379.52,9456.91 2379.52,9558.5 2413.39,9558.5 2413.39,9626.23 2447.25,9626.23 2447.25,9693.95 2481.12,9693.95 2481.12,9761.68 2514.98,9761.68 2514.98,9795.55 2548.84,9795.55 2548.84,9863.27 2582.71,9863.27 2582.71,9897.14 2616.57,9897.14 2616.57,9931 2650.44,9931 2650.44,9964.87 2684.3,9964.87 2684.3,9998.73 2718.16,9998.73 2718.16,10032.59 2752.03,10032.59 2752.03,10066.46 2785.89,10066.46 2785.89,10100.32 2819.76,10100.32 2819.76,10134.18 2887.48,10134.18 2887.48,10168.05 2921.35,10168.05 2921.35,10201.91 2989.07,10201.91 2989.07,10235.78 3056.8,10235.78 3056.8,10269.64 3124.53,10269.64 3124.53,10303.5 3226.12,10303.5 3226.12,10337.37 3361.58,10337.37 3361.58,10371.23 3801.81,10371.23 3801.81,10337.37 3971.13,10337.37 3971.13,10303.5 4072.72,10303.5 4072.72,10269.64 4140.45,10269.64 4140.45,10235.78 4208.17,10235.78 4208.17,10201.91 4275.9,10201.91 4275.9,10168.05 4309.77,10168.05 4309.77,10134.18 4377.49,10134.18 4377.49,10100.32 4411.36,10100.32 4411.36,10066.46 4445.22,10066.46 4445.22,10032.59 4479.08,10032.59 4479.08,9998.73 4512.95,9998.73 4512.95,9964.87 4546.81,9964.87 4546.81,9931 4580.68,9931 4580.68,9897.14 4614.54,9897.14 4614.54,9863.27 4648.4,9863.27 4648.4,9795.55 4682.27,9795.55 4682.27,9761.68 4716.13,9761.68 4716.13,9693.95 4750,9693.95 4750,9626.23 4783.86,9626.23 4783.86,9524.64 4817.72,9524.64 4817.72,9423.04 4851.59,9423.04 4851.59,9253.72 4885.45,9253.72 4885.45,8915.09 4851.59,8915.09 4851.59,8745.77 4817.72,8745.77 4817.72,8644.17 4783.86,8644.17 4783.86,8576.45 4750,8576.45 4750,8508.72 4716.13,8508.72 4716.13,8440.99 4682.27,8440.99 4682.27,8373.26 4648.4,8373.26 4648.4,8339.4 4614.54,8339.4 4614.54,8305.54 4580.68,8305.54 4580.68,8271.67 4546.81,8271.67 4546.81,8203.94 4512.95,8203.94 4512.95,8170.08 4479.08,8170.08 4479.08,8136.22 4411.36,8136.22 4411.36,8102.35 4377.49,8102.35 4377.49,8068.49 4343.63,8068.49 4343.63,8034.62 4275.9,8034.62 4275.9,8000.76 4242.04,8000.76 4242.04,7966.9 4174.31,7966.9 4174.31,7933.03 4106.58,7933.03 4106.58,7899.17 4004.99,7899.17 4004.99,7865.31 3903.4,7865.31 3903.4,7831.44 3598.62,7831.44 3598.62,7797.58 3564.76,7797.58 "/>
   <polygon class="fil0" points="11285.72,7831.44 11014.81,7831.44 11014.81,7865.31 10879.36,7865.31 10879.36,7899.17 10811.63,7899.17 10811.63,7933.03 10743.9,7933.03 10743.9,7966.9 10676.17,7966.9 10676.17,8000.76 10608.44,8000.76 10608.44,8034.62 10574.58,8034.62 10574.58,8068.49 10506.85,8068.49 10506.85,8102.35 10472.99,8102.35 10472.99,8136.22 10439.13,8136.22 10439.13,8170.08 10405.26,8170.08 10405.26,8203.94 10371.4,8203.94 10371.4,8237.81 10337.53,8237.81 10337.53,8271.67 10303.67,8271.67 10303.67,8305.54 10269.81,8305.54 10269.81,8373.26 10235.94,8373.26 10235.94,8407.13 10202.08,8407.13 10202.08,8474.86 10168.21,8474.86 10168.21,8542.58 10134.35,8542.58 10134.35,8610.31 10100.49,8610.31 10100.49,8711.9 10066.62,8711.9 10066.62,8813.49 10032.76,8813.49 10032.76,9355.32 10066.62,9355.32 10066.62,9490.77 10100.49,9490.77 10100.49,9592.36 10134.35,9592.36 10134.35,9660.09 10168.21,9660.09 10168.21,9727.82 10202.08,9727.82 10202.08,9761.68 10235.94,9761.68 10235.94,9829.41 10269.81,9829.41 10269.81,9863.27 10303.67,9863.27 10303.67,9897.14 10337.53,9897.14 10337.53,9964.87 10371.4,9964.87 10371.4,9998.73 10405.26,9998.73 10405.26,10032.59 10439.13,10032.59 10439.13,10066.46 10506.85,10066.46 10506.85,10100.32 10540.72,10100.32 10540.72,10134.18 10574.58,10134.18 10574.58,10168.05 10642.31,10168.05 10642.31,10201.91 10710.04,10201.91 10710.04,10235.78 10777.76,10235.78 10777.76,10269.64 10845.49,10269.64 10845.49,10303.5 10947.08,10303.5 10947.08,10337.37 11082.54,10337.37 11082.54,10371.23 11522.77,10371.23 11522.77,10337.37 11658.22,10337.37 11658.22,10303.5 11759.82,10303.5 11759.82,10269.64 11861.41,10269.64 11861.41,10235.78 11929.14,10235.78 11929.14,10201.91 11963,10201.91 11963,10168.05 12030.73,10168.05 12030.73,10134.18 12064.59,10134.18 12064.59,10100.32 12132.32,10100.32 12132.32,10066.46 12166.18,10066.46 12166.18,10032.59 12200.05,10032.59 12200.05,9998.73 12233.91,9998.73 12233.91,9964.87 12267.77,9964.87 12267.77,9931 12301.64,9931 12301.64,9863.27 12335.5,9863.27 12335.5,9829.41 12369.37,9829.41 12369.37,9795.55 12403.23,9795.55 12403.23,9727.82 12437.09,9727.82 12437.09,9660.09 12470.96,9660.09 12470.96,9592.36 12504.82,9592.36 12504.82,9490.77 12538.68,9490.77 12538.68,9389.18 12572.55,9389.18 12572.55,8813.49 12538.68,8813.49 12538.68,8678.04 12504.82,8678.04 12504.82,8610.31 12470.96,8610.31 12470.96,8542.58 12437.09,8542.58 12437.09,8474.86 12403.23,8474.86 12403.23,8407.13 12369.37,8407.13 12369.37,8373.26 12335.5,8373.26 12335.5,8305.54 12301.64,8305.54 12301.64,8271.67 12267.77,8271.67 12267.77,8237.81 12233.91,8237.81 12233.91,8203.94 12200.05,8203.94 12200.05,8170.08 12166.18,8170.08 12166.18,8136.22 12132.32,8136.22 12132.32,8102.35 12098.45,8102.35 12098.45,8068.49 12030.73,8068.49 12030.73,8034.62 11996.86,8034.62 11996.86,8000.76 11929.14,8000.76 11929.14,7966.9 11895.27,7966.9 11895.27,7933.03 11793.68,7933.03 11793.68,7899.17 11725.95,7899.17 11725.95,7865.31 11590.5,7865.31 11590.5,7831.44 11319.59,7831.44 11319.59,7797.58 11285.72,7797.58 "/>
  </g>
 </g>
</svg>
