<?xml version="1.0" encoding="UTF-8"?>
<!DOCTYPE svg PUBLIC "-//W3C//DTD SVG 1.1//EN" "http://www.w3.org/Graphics/SVG/1.1/DTD/svg11.dtd">
<!-- Creator: CorelDRAW -->
<svg xmlns="http://www.w3.org/2000/svg" xml:space="preserve" width="167.555mm" height="111.337mm" version="1.1" style="shape-rendering:geometricPrecision; text-rendering:geometricPrecision; image-rendering:optimizeQuality; fill-rule:evenodd; clip-rule:evenodd"
viewBox="0 0 16755.52 11133.66"
 xmlns:xlink="http://www.w3.org/1999/xlink"
 xmlns:xodm="http://www.corel.com/coreldraw/odm/2003">
 <defs>
  <style type="text/css">
   <![CDATA[
    .fil1 {fill:#FEFEFE}
    .fil0 {fill:#FEFEFE;fill-rule:nonzero}
   ]]>
  </style>
 </defs>
 <g id="Capa_x0020_1">
  <metadata id="CorelCorpID_0Corel-Layer"/>
  <g id="_2419499356864">
   <path class="fil0" d="M5.18 11115.76l120.9 -1404.97 352.28 0 195.95 508.62c33.35,84.77 61.84,162.6 85.47,233.47 23.62,70.87 38.91,120.9 45.86,150.09l10.42 41.69c22.23,-91.72 70.87,-233.47 145.92,-425.25l198.03 -508.62 352.28 0 145.92 1404.97 -321.02 0 -52.11 -544.06 -27.1 -410.65c-36.13,104.22 -86.16,241.11 -150.09,410.65l-198.03 529.47 -189.69 0 -195.95 -529.47c-31.96,-86.16 -59.06,-163.29 -81.29,-231.39 -22.24,-68.09 -36.83,-115.34 -43.78,-141.74l-10.42 -37.52c0,98.66 -6.25,235.55 -18.76,410.65l-43.78 544.06 -321.01 0zm2303.41 -546.15l337.69 0 -14.59 -50.03c-40.3,-136.18 -73.31,-252.22 -99.02,-348.11 -25.71,-95.89 -41.34,-157.73 -46.9,-185.53l-8.34 -41.69c-11.11,76.44 -62.53,268.21 -154.25,575.33l-14.59 50.03zm500.28 546.15l-85.46 -287.67 -491.95 0 -85.47 287.67 -335.61 0 469.02 -1404.97 404.4 0 469.02 1404.97 -343.95 0zm548.24 0l0 -1404.97 321.02 0 0 1404.97 -321.02 0zm1548.81 -1404.97l0 258.48 -341.86 0 0 1146.49 -323.11 0 0 -1146.49 -343.94 0 0 -258.48 1008.91 0zm521.13 1148.57l550.31 0 0 256.4 -873.42 0 0 -1404.97 865.08 0 0 256.39 -541.97 0 0 318.94 483.61 0 0 254.31 -483.61 0 0 318.93zm831.72 256.4l0 -1404.97 321.02 0 0 1404.97 -321.02 0zm1544.64 -546.15l337.69 0 -14.59 -50.03c-40.3,-136.18 -73.31,-252.22 -99.02,-348.11 -25.71,-95.89 -41.34,-157.73 -46.9,-185.53l-8.34 -41.69c-11.11,76.44 -62.53,268.21 -154.25,575.33l-14.59 50.03zm500.28 546.15l-85.46 -287.67 -491.95 0 -85.47 287.67 -335.61 0 469.02 -1404.97 404.4 0 469.02 1404.97 -343.95 0zm848.41 -281.41l519.05 0 0 281.41 -840.07 0 0 -1404.97 321.02 0 0 1123.56zm664.97 281.41l120.9 -1404.97 352.28 0 195.95 508.62c33.35,84.77 61.84,162.6 85.47,233.47 23.62,70.87 38.91,120.9 45.86,150.09l10.42 41.69c22.23,-91.72 70.87,-233.47 145.92,-425.25l198.03 -508.62 352.28 0 145.92 1404.97 -321.02 0 -52.11 -544.06 -27.1 -410.65c-36.13,104.22 -86.16,241.11 -150.09,410.65l-198.03 529.47 -189.69 0 -195.95 -529.47c-31.96,-86.16 -59.06,-163.29 -81.29,-231.39 -22.24,-68.09 -36.83,-115.34 -43.78,-141.74l-10.42 -37.52c0,98.66 -6.25,235.55 -18.76,410.65l-43.78 544.06 -321.01 0zm2303.41 -546.15l337.69 0 -14.59 -50.03c-40.3,-136.18 -73.31,-252.22 -99.02,-348.11 -25.71,-95.89 -41.34,-157.73 -46.9,-185.53l-8.34 -41.69c-11.11,76.44 -62.53,268.21 -154.25,575.33l-14.59 50.03zm500.28 546.15l-85.46 -287.67 -491.95 0 -85.47 287.67 -335.61 0 469.02 -1404.97 404.4 0 469.02 1404.97 -343.95 0zm1565.49 -1344.52l0 308.51c-104.23,-63.93 -220.26,-95.89 -348.12,-95.89 -112.56,0 -207.06,39.26 -283.49,117.78 -76.43,78.51 -114.65,183.78 -114.65,315.8 0,129.24 38.22,231.73 114.65,307.47 76.43,75.74 175.1,113.61 296,113.61 130.63,0 242.5,-33.35 335.61,-100.06l0 314.76c-84.77,52.81 -207.06,79.22 -366.88,79.22 -205.67,0 -377.64,-66.36 -515.92,-199.08 -138.27,-132.71 -207.41,-304.69 -207.41,-515.92 0,-214.01 67.05,-388.41 201.16,-523.21 134.1,-134.8 308.86,-202.2 524.26,-202.2 158.42,0 280.02,26.4 364.79,79.21zm562.83 1088.12l550.31 0 0 256.4 -873.42 0 0 -1404.97 865.08 0 0 256.39 -541.97 0 0 318.94 483.61 0 0 254.31 -483.61 0 0 318.93zm810.87 256.4l0 -1404.97 352.29 0 327.27 581.58c45.86,81.99 85.81,158.77 119.86,230.34 34.05,71.57 55.94,121.95 65.66,151.13l16.68 45.86c-13.9,-102.84 -20.84,-245.28 -20.84,-427.33l0 -581.58 321.01 0 0 1404.97 -352.28 0 -335.61 -581.58c-44.47,-75.05 -83.73,-149.05 -117.78,-222.01 -34.05,-72.95 -57.32,-126.81 -69.83,-161.55l-16.68 -52.11c20.85,125.07 31.27,270.29 31.27,435.67l0 581.58 -321.02 0z"/>
   <g>
    <path class="fil1" d="M11125.46 2909.06c-294.85,-245.7 -540.57,-245.7 -737.12,0 245.7,344 688,294.85 884.55,0l-147.43 0z"/>
    <path class="fil1" d="M10683.19 3302.18c-344,-245.69 -540.57,-245.69 -737.12,49.15 245.7,294.85 687.99,196.58 884.54,-49.15l-147.42 0 0 0z"/>
    <path class="fil1" d="M10339.19 3744.46c-344,-98.28 -589.7,-49.15 -688,294.85 344,196.57 737.12,-49.15 835.42,-344l-147.42 49.15 0 0z"/>
    <path class="fil1" d="M10191.77 4285.03c-393.15,-49.15 -589.7,49.15 -638.85,344 344,196.57 737.12,-98.28 786.27,-393.15l-147.42 49.15z"/>
    <path class="fil1" d="M10093.47 4973.03c-393.15,-98.28 -589.7,0 -638.85,344 344,147.42 737.12,-98.28 786.27,-442.28l-147.42 98.28z"/>
    <path class="fil1" d="M9946.04 5611.87c-393.15,0 -589.7,147.43 -540.57,491.43 393.15,49.15 688,-294.85 638.85,-638.85l-98.28 147.42 0 0z"/>
    <path class="fil1" d="M8570.07 5464.45c393.15,147.42 540.58,294.85 393.15,638.85 -393.15,-49.15 -589.7,-442.28 -491.42,-786.27l98.27 147.42z"/>
    <path class="fil1" d="M8717.5 4629.03c344,196.57 442.27,393.15 294.85,688 -393.15,-98.28 -540.58,-540.58 -393.15,-835.43l49.15 147.43 49.15 0z"/>
    <path class="fil1" d="M8914.07 3842.76c344,196.57 442.27,393.15 245.7,687.99 -393.15,-147.42 -491.42,-589.69 -294.85,-835.42l49.15 147.43 0 0z"/>
    <path class="fil1" d="M9258.04 3203.91c294.85,245.7 344,442.27 98.28,688 -344,-196.58 -344,-638.85 -147.43,-884.55l49.15 196.57 0 -0.02z"/>
    <path class="fil1" d="M9798.62 2515.92c196.57,294.85 147.42,540.58 -147.43,688 -294.85,-294.85 -147.42,-737.12 147.43,-884.55l0 196.58 0 0 0 -0.03z"/>
    <path class="fil1" d="M10535.74 2073.65c49.15,393.15 -49.15,589.7 -393.15,638.85 -147.42,-393.15 147.42,-737.13 442.27,-786.28l-49.15 147.43 0 0 0.03 0z"/>
    <path class="fil1" d="M7144.95 3941.03c98.28,-294.85 0,-491.42 -344,-589.7l49.15 98.28c-49.15,294.85 49.15,442.27 294.85,491.42l0 0z"/>
    <path class="fil1" d="M7488.95 4285.03c196.58,-245.7 196.58,-442.27 -98.27,-688l0 147.43c-147.43,245.7 -98.28,442.27 98.27,540.57z"/>
    <path class="fil1" d="M7783.8 4825.6c245.7,-196.57 245.7,-442.27 0,-687.99l0 98.27c-196.57,196.57 -196.57,393.15 0,589.7l0 0 0 0.02z"/>
    <path class="fil1" d="M7882.08 5317.03c294.84,-147.43 343.99,-344 196.57,-688l0 98.27c-245.7,196.58 -344,344 -196.57,589.7l0 0 0 0.03z"/>
    <path class="fil1" d="M7980.35 5857.57c344,-98.27 442.27,-294.85 294.85,-589.69l0 98.27c-294.85,98.27 -393.15,294.85 -294.85,491.42z"/>
    <path class="fil1" d="M8029.5 6447.27c294.85,-49.15 442.27,-245.7 344,-589.7l-49.15 98.28c-245.7,98.27 -393.15,245.7 -294.85,491.42z"/>
    <path class="fil1" d="M7685.5 6447.27c-294.85,0 -491.42,-147.42 -491.42,-491.42l98.27 98.27c294.85,0 393.15,147.43 393.15,393.15z"/>
    <path class="fil1" d="M7685.5 5906.72c-294.85,98.28 -491.42,-49.15 -589.7,-393.15l98.28 98.28c294.85,-49.15 442.27,49.15 491.42,294.85l0 0 0 0.02z"/>
    <path class="fil1" d="M7636.38 5366.15c-294.85,98.27 -540.58,0 -638.85,-294.85l98.27 49.15c294.85,-98.27 442.28,0 540.58,245.7z"/>
    <path class="fil1" d="M7488.95 4923.88c-294.85,98.27 -491.42,0 -589.7,-294.85l98.28 49.15c245.7,-98.28 442.27,0 491.42,245.7l0 0z"/>
    <path class="fil1" d="M7341.5 4383.3c-245.7,245.7 -491.42,196.58 -688,-49.15l98.28 0c245.7,-147.42 393.15,-147.42 540.57,49.15l49.15 0z"/>
    <path class="fil1" d="M6997.53 4088.46c-245.7,245.69 -442.27,245.69 -688,0l98.28 0c196.57,-196.58 393.14,-196.58 589.69,0l0 0 0.03 0z"/>
    <path class="fil1" d="M10879.74 3547.91c491.42,884.54 491.42,1965.69 0,2801.08l589.69 147.42c147.43,-294.85 245.7,-638.85 294.85,-933.7 393.15,49.15 933.7,-49.15 1572.55,-343.99 -638.85,-49.15 -1179.42,-147.43 -1523.4,-393.15 0,-344 -49.15,-737.12 -196.57,-1081.12 442.27,-196.58 884.55,-540.58 1277.69,-1032 -294.84,196.58 -786.27,344 -1425.12,393.15 -196.57,245.7 -245.69,294.85 -589.69,442.27l0 0 0 0.03 0 0.01z"/>
    <path class="fil1" d="M6407.81 6938.69c-933.7,-933.69 -1081.12,-2457.11 -344,-3538.22 737.12,-1130.27 2162.24,-1572.55 3439.92,-1081.12 196.58,-196.58 344,-344 442.28,-442.28 -294.85,-147.42 -589.7,-245.69 -884.55,-294.84 0,-442.28 -147.42,-982.85 -344,-1572.55 -98.27,786.27 -196.57,1277.7 -393.15,1523.4 -344,0 -737.12,49.15 -1081.12,196.57 -294.85,-589.7 -638.84,-1032 -1031.99,-1277.69 393.15,884.54 540.57,1425.11 442.27,1572.54 -294.85,196.57 -589.7,442.27 -835.42,688 -491.43,-344 -982.85,-491.43 -1523.4,-540.58 589.7,393.15 982.85,786.28 1130.27,1130.27 -196.57,344 -294.84,688 -343.99,1032 -638.85,-49.15 -1179.42,49.15 -1572.55,245.7 688,98.27 1179.42,196.57 1474.27,442.27 49.15,344 98.28,688 196.58,1032 -442.28,245.7 -835.43,589.69 -1179.42,1031.99 737.12,-294.85 1228.54,-442.27 1425.11,-442.27 98.28,147.42 196.58,294.85 294.85,442.27l688 -147.42 0 0 0.03 -0.03 0.01 -0.01z"/>
    <path class="fil1" d="M9061.5 6643.84c-344,98.28 -737.13,147.43 -1081.13,245.7 -49.14,-1769.11 -442.27,-2751.95 -1130.27,-3046.8 -98.27,-294.85 -294.84,-442.27 -589.69,-344 98.27,245.7 294.85,393.15 589.69,393.15 933.7,294.85 982.85,2555.39 933.7,3046.8 -1228.54,294.85 -2653.66,638.85 -4619.34,540.58 5012.49,1867.39 5356.46,-688 10418.11,294.85l0 0c-1769.12,-1179.43 -2997.66,-1326.85 -4275.35,-1130.28 -49.15,-2162.24 344,-3489.07 1277.69,-3980.49 344,0 589.7,-147.43 786.28,-540.58 -393.15,-49.15 -688,98.28 -835.43,491.43 -1130.27,540.57 -1425.11,1867.39 -1425.11,4029.64l-49.15 0z"/>
    <path class="fil1" d="M12747.14 8462.1c-2506.23,-1572.54 -3489.07,147.43 -6683.31,49.15 3145.08,1130.27 3882.23,-638.85 6683.31,-49.15z"/>
    <path class="fil1" d="M11125.46 2909.06c-294.85,-245.7 -540.57,-245.7 -737.12,0 245.7,344 688,294.85 884.55,0l-147.43 0z"/>
    <path class="fil1" d="M10683.19 3302.18c-344,-245.69 -540.57,-245.69 -737.12,49.15 245.7,294.85 687.99,196.58 884.54,-49.15l-147.42 0 0 0z"/>
    <path class="fil1" d="M10339.19 3744.46c-344,-98.28 -589.7,-49.15 -688,294.85 344,196.57 737.12,-49.15 835.42,-344l-147.42 49.15 0 0z"/>
    <path class="fil1" d="M10191.77 4285.03c-393.15,-49.15 -589.7,49.15 -638.85,344 344,196.57 737.12,-98.28 786.27,-393.15l-147.42 49.15z"/>
    <path class="fil1" d="M10093.47 4973.03c-393.15,-98.28 -589.7,0 -638.85,344 344,147.42 737.12,-98.28 786.27,-442.28l-147.42 98.28z"/>
    <path class="fil1" d="M9946.04 5611.87c-393.15,0 -589.7,147.43 -540.57,491.43 393.15,49.15 688,-294.85 638.85,-638.85l-98.28 147.42 0 0z"/>
    <path class="fil1" d="M8570.07 5464.45c393.15,147.42 540.58,294.85 393.15,638.85 -393.15,-49.15 -589.7,-442.28 -491.42,-786.27l98.27 147.42z"/>
    <path class="fil1" d="M8717.5 4629.03c344,196.57 442.27,393.15 294.85,688 -393.15,-98.28 -540.58,-540.58 -393.15,-835.43l49.15 147.43 49.15 0z"/>
    <path class="fil1" d="M8914.07 3842.76c344,196.57 442.27,393.15 245.7,687.99 -393.15,-147.42 -491.42,-589.69 -294.85,-835.42l49.15 147.43 0 0z"/>
    <path class="fil1" d="M9258.04 3203.91c294.85,245.7 344,442.27 98.28,688 -344,-196.58 -344,-638.85 -147.43,-884.55l49.15 196.57 0 -0.02z"/>
    <path class="fil1" d="M9798.62 2515.92c196.57,294.85 147.42,540.58 -147.43,688 -294.85,-294.85 -147.42,-737.12 147.43,-884.55l0 196.58 0 0 0 -0.03z"/>
    <path class="fil1" d="M10535.74 2073.65c49.15,393.15 -49.15,589.7 -393.15,638.85 -147.42,-393.15 147.42,-737.13 442.27,-786.28l-49.15 147.43 0 0 0.03 0z"/>
    <path class="fil1" d="M7144.95 3941.03c98.28,-294.85 0,-491.42 -344,-589.7l49.15 98.28c-49.15,294.85 49.15,442.27 294.85,491.42l0 0z"/>
    <path class="fil1" d="M7488.95 4285.03c196.58,-245.7 196.58,-442.27 -98.27,-688l0 147.43c-147.43,245.7 -98.28,442.27 98.27,540.57z"/>
    <path class="fil1" d="M7783.8 4825.6c245.7,-196.57 245.7,-442.27 0,-687.99l0 98.27c-196.57,196.57 -196.57,393.15 0,589.7l0 0 0 0.02z"/>
    <path class="fil1" d="M7882.08 5317.03c294.84,-147.43 343.99,-344 196.57,-688l0 98.27c-245.7,196.58 -344,344 -196.57,589.7l0 0 0 0.03z"/>
    <path class="fil1" d="M7980.35 5857.57c344,-98.27 442.27,-294.85 294.85,-589.69l0 98.27c-294.85,98.27 -393.15,294.85 -294.85,491.42z"/>
    <path class="fil1" d="M8029.5 6447.27c294.85,-49.15 442.27,-245.7 344,-589.7l-49.15 98.28c-245.7,98.27 -393.15,245.7 -294.85,491.42z"/>
    <path class="fil1" d="M7685.5 6447.27c-294.85,0 -491.42,-147.42 -491.42,-491.42l98.27 98.27c294.85,0 393.15,147.43 393.15,393.15z"/>
    <path class="fil1" d="M7685.5 5906.72c-294.85,98.28 -491.42,-49.15 -589.7,-393.15l98.28 98.28c294.85,-49.15 442.27,49.15 491.42,294.85l0 0 0 0.02z"/>
    <path class="fil1" d="M7636.38 5366.15c-294.85,98.27 -540.58,0 -638.85,-294.85l98.27 49.15c294.85,-98.27 442.28,0 540.58,245.7z"/>
    <path class="fil1" d="M7488.95 4923.88c-294.85,98.27 -491.42,0 -589.7,-294.85l98.28 49.15c245.7,-98.28 442.27,0 491.42,245.7l0 0z"/>
    <path class="fil1" d="M7341.5 4383.3c-245.7,245.7 -491.42,196.58 -688,-49.15l98.28 0c245.7,-147.42 393.15,-147.42 540.57,49.15l49.15 0z"/>
    <path class="fil1" d="M6997.53 4088.46c-245.7,245.69 -442.27,245.69 -688,0l98.28 0c196.57,-196.58 393.14,-196.58 589.69,0l0 0 0.03 0z"/>
    <path class="fil1" d="M10879.74 3547.91c491.42,884.54 491.42,1965.69 0,2801.08l589.69 147.42c147.43,-294.85 245.7,-638.85 294.85,-933.7 393.15,49.15 933.7,-49.15 1572.55,-343.99 -638.85,-49.15 -1179.42,-147.43 -1523.4,-393.15 0,-344 -49.15,-737.12 -196.57,-1081.12 442.27,-196.58 884.55,-540.58 1277.69,-1032 -294.84,196.58 -786.27,344 -1425.12,393.15 -196.57,245.7 -245.69,294.85 -589.69,442.27l0 0 0 0.03 0 0.01z"/>
    <path class="fil1" d="M6407.81 6938.69c-933.7,-933.69 -1081.12,-2457.11 -344,-3538.22 737.12,-1130.27 2162.24,-1572.55 3439.92,-1081.12 196.58,-196.58 344,-344 442.28,-442.28 -294.85,-147.42 -589.7,-245.69 -884.55,-294.84 0,-442.28 -147.42,-982.85 -344,-1572.55 -98.27,786.27 -196.57,1277.7 -393.15,1523.4 -344,0 -737.12,49.15 -1081.12,196.57 -294.85,-589.7 -638.84,-1032 -1031.99,-1277.69 393.15,884.54 540.57,1425.11 442.27,1572.54 -294.85,196.57 -589.7,442.27 -835.42,688 -491.43,-344 -982.85,-491.43 -1523.4,-540.58 589.7,393.15 982.85,786.28 1130.27,1130.27 -196.57,344 -294.84,688 -343.99,1032 -638.85,-49.15 -1179.42,49.15 -1572.55,245.7 688,98.27 1179.42,196.57 1474.27,442.27 49.15,344 98.28,688 196.58,1032 -442.28,245.7 -835.43,589.69 -1179.42,1031.99 737.12,-294.85 1228.54,-442.27 1425.11,-442.27 98.28,147.42 196.58,294.85 294.85,442.27l688 -147.42 0 0 0.03 -0.03 0.01 -0.01z"/>
    <path class="fil1" d="M9061.5 6643.84c-344,98.28 -737.13,147.43 -1081.13,245.7 -49.14,-1769.11 -442.27,-2751.95 -1130.27,-3046.8 -98.27,-294.85 -294.84,-442.27 -589.69,-344 98.27,245.7 294.85,393.15 589.69,393.15 933.7,294.85 982.85,2555.39 933.7,3046.8 -1228.54,294.85 -2653.66,638.85 -4619.34,540.58 5012.49,1867.39 5356.46,-688 10418.11,294.85l0 0c-1769.12,-1179.43 -2997.66,-1326.85 -4275.35,-1130.28 -49.15,-2162.24 344,-3489.07 1277.69,-3980.49 344,0 589.7,-147.43 786.28,-540.58 -393.15,-49.15 -688,98.28 -835.43,491.43 -1130.27,540.57 -1425.11,1867.39 -1425.11,4029.64l-49.15 0z"/>
    <path class="fil1" d="M12747.14 8462.1c-2506.23,-1572.54 -3489.07,147.43 -6683.31,49.15 3145.08,1130.27 3882.23,-638.85 6683.31,-49.15z"/>
   </g>
   <path class="fil0" d="M5.18 11115.76l120.9 -1404.97 352.28 0 195.95 508.62c33.35,84.77 61.84,162.6 85.47,233.47 23.62,70.87 38.91,120.9 45.86,150.09l10.42 41.69c22.23,-91.72 70.87,-233.47 145.92,-425.25l198.03 -508.62 352.28 0 145.92 1404.97 -321.02 0 -52.11 -544.06 -27.1 -410.65c-36.13,104.22 -86.16,241.11 -150.09,410.65l-198.03 529.47 -189.69 0 -195.95 -529.47c-31.96,-86.16 -59.06,-163.29 -81.29,-231.39 -22.24,-68.09 -36.83,-115.34 -43.78,-141.74l-10.42 -37.52c0,98.66 -6.25,235.55 -18.76,410.65l-43.78 544.06 -321.01 0zm2303.41 -546.15l337.69 0 -14.59 -50.03c-40.3,-136.18 -73.31,-252.22 -99.02,-348.11 -25.71,-95.89 -41.34,-157.73 -46.9,-185.53l-8.34 -41.69c-11.11,76.44 -62.53,268.21 -154.25,575.33l-14.59 50.03zm500.28 546.15l-85.46 -287.67 -491.95 0 -85.47 287.67 -335.61 0 469.02 -1404.97 404.4 0 469.02 1404.97 -343.95 0zm548.24 0l0 -1404.97 321.02 0 0 1404.97 -321.02 0zm1548.81 -1404.97l0 258.48 -341.86 0 0 1146.49 -323.11 0 0 -1146.49 -343.94 0 0 -258.48 1008.91 0zm521.13 1148.57l550.31 0 0 256.4 -873.42 0 0 -1404.97 865.08 0 0 256.39 -541.97 0 0 318.94 483.61 0 0 254.31 -483.61 0 0 318.93zm831.72 256.4l0 -1404.97 321.02 0 0 1404.97 -321.02 0zm1544.64 -546.15l337.69 0 -14.59 -50.03c-40.3,-136.18 -73.31,-252.22 -99.02,-348.11 -25.71,-95.89 -41.34,-157.73 -46.9,-185.53l-8.34 -41.69c-11.11,76.44 -62.53,268.21 -154.25,575.33l-14.59 50.03zm500.28 546.15l-85.46 -287.67 -491.95 0 -85.47 287.67 -335.61 0 469.02 -1404.97 404.4 0 469.02 1404.97 -343.95 0zm848.41 -281.41l519.05 0 0 281.41 -840.07 0 0 -1404.97 321.02 0 0 1123.56zm664.97 281.41l120.9 -1404.97 352.28 0 195.95 508.62c33.35,84.77 61.84,162.6 85.47,233.47 23.62,70.87 38.91,120.9 45.86,150.09l10.42 41.69c22.23,-91.72 70.87,-233.47 145.92,-425.25l198.03 -508.62 352.28 0 145.92 1404.97 -321.02 0 -52.11 -544.06 -27.1 -410.65c-36.13,104.22 -86.16,241.11 -150.09,410.65l-198.03 529.47 -189.69 0 -195.95 -529.47c-31.96,-86.16 -59.06,-163.29 -81.29,-231.39 -22.24,-68.09 -36.83,-115.34 -43.78,-141.74l-10.42 -37.52c0,98.66 -6.25,235.55 -18.76,410.65l-43.78 544.06 -321.01 0zm2303.41 -546.15l337.69 0 -14.59 -50.03c-40.3,-136.18 -73.31,-252.22 -99.02,-348.11 -25.71,-95.89 -41.34,-157.73 -46.9,-185.53l-8.34 -41.69c-11.11,76.44 -62.53,268.21 -154.25,575.33l-14.59 50.03zm500.28 546.15l-85.46 -287.67 -491.95 0 -85.47 287.67 -335.61 0 469.02 -1404.97 404.4 0 469.02 1404.97 -343.95 0zm1565.49 -1344.52l0 308.51c-104.23,-63.93 -220.26,-95.89 -348.12,-95.89 -112.56,0 -207.06,39.26 -283.49,117.78 -76.43,78.51 -114.65,183.78 -114.65,315.8 0,129.24 38.22,231.73 114.65,307.47 76.43,75.74 175.1,113.61 296,113.61 130.63,0 242.5,-33.35 335.61,-100.06l0 314.76c-84.77,52.81 -207.06,79.22 -366.88,79.22 -205.67,0 -377.64,-66.36 -515.92,-199.08 -138.27,-132.71 -207.41,-304.69 -207.41,-515.92 0,-214.01 67.05,-388.41 201.16,-523.21 134.1,-134.8 308.86,-202.2 524.26,-202.2 158.42,0 280.02,26.4 364.79,79.21zm562.83 1088.12l550.31 0 0 256.4 -873.42 0 0 -1404.97 865.08 0 0 256.39 -541.97 0 0 318.94 483.61 0 0 254.31 -483.61 0 0 318.93zm810.87 256.4l0 -1404.97 352.29 0 327.27 581.58c45.86,81.99 85.81,158.77 119.86,230.34 34.05,71.57 55.94,121.95 65.66,151.13l16.68 45.86c-13.9,-102.84 -20.84,-245.28 -20.84,-427.33l0 -581.58 321.01 0 0 1404.97 -352.28 0 -335.61 -581.58c-44.47,-75.05 -83.73,-149.05 -117.78,-222.01 -34.05,-72.95 -57.32,-126.81 -69.83,-161.55l-16.68 -52.11c20.85,125.07 31.27,270.29 31.27,435.67l0 581.58 -321.02 0z"/>
  </g>
 </g>
</svg>
