<?xml version="1.0" encoding="UTF-8"?>
<!DOCTYPE svg PUBLIC "-//W3C//DTD SVG 1.1//EN" "http://www.w3.org/Graphics/SVG/1.1/DTD/svg11.dtd">
<!-- Creator: CorelDRAW -->
<svg xmlns="http://www.w3.org/2000/svg" xml:space="preserve" width="161.713mm" height="45.8892mm" version="1.1" style="shape-rendering:geometricPrecision; text-rendering:geometricPrecision; image-rendering:optimizeQuality; fill-rule:evenodd; clip-rule:evenodd"
viewBox="0 0 16171.32 4588.92"
 xmlns:xlink="http://www.w3.org/1999/xlink"
 xmlns:xodm="http://www.corel.com/coreldraw/odm/2003">
 <defs>
  <style type="text/css">
   <![CDATA[
    .fil1 {fill:#048A07}
    .fil0 {fill:#FF5E0D}
    .fil2 {fill:#FF5E0D;fill-rule:nonzero}
   ]]>
  </style>
 </defs>
 <g id="Capa_x0020_1">
  <metadata id="CorelCorpID_0Corel-Layer"/>
  <g id="_2419523813232">
   <g id="_2225937024112">
    <path class="fil0" d="M4103.33 1500.39c-162.66,-108.44 -271.1,-135.55 -379.54,0 135.55,162.66 352.43,135.55 460.87,0l-81.33 0z"/>
    <path class="fil0" d="M3859.34 1690.16c-162.66,-108.44 -271.1,-108.44 -352.43,27.11 135.55,162.66 352.43,108.44 433.76,-27.11l-81.33 0 0 0z"/>
    <path class="fil0" d="M3696.68 1934.15c-189.77,-54.22 -298.21,-27.11 -352.43,135.55 189.77,108.44 406.65,0 433.76,-162.66l-81.33 27.11 0 0z"/>
    <path class="fil0" d="M3615.35 2205.25c-189.77,-27.11 -298.21,27.11 -325.32,189.77 189.77,81.33 379.54,-54.22 406.65,-216.88l-81.33 27.11z"/>
    <path class="fil0" d="M3561.13 2557.69c-189.77,-54.22 -298.21,0 -325.32,189.77 189.77,81.33 379.54,-54.22 406.65,-243.99l-81.33 54.22z"/>
    <path class="fil0" d="M3506.91 2883.01c-216.88,0 -298.21,81.33 -271.1,243.99 189.77,54.22 352.43,-135.55 325.32,-325.32l-54.22 81.33 0 0z"/>
    <path class="fil0" d="M2802.05 2828.79c189.77,54.22 271.1,135.55 216.88,298.21 -216.88,0 -325.32,-216.88 -271.1,-379.54l54.22 81.33z"/>
    <path class="fil0" d="M2856.27 2395.03c189.77,81.33 243.99,189.77 162.66,325.32 -189.77,-27.11 -271.1,-271.1 -189.77,-406.65l27.11 81.33 0 0z"/>
    <path class="fil0" d="M2964.71 1961.26c189.77,108.44 216.88,216.88 135.55,352.43 -189.77,-54.22 -243.99,-271.1 -162.66,-406.65l27.11 54.22 0 0z"/>
    <path class="fil0" d="M3127.37 1635.94c162.66,135.55 189.77,243.99 81.33,379.54 -189.77,-108.44 -189.77,-325.32 -81.33,-460.87l0 81.33z"/>
    <path class="fil0" d="M3425.58 1283.51c81.33,162.66 81.33,298.21 -81.33,379.54 -135.55,-162.66 -54.22,-379.54 81.33,-460.87l0 81.33 0 0z"/>
    <path class="fil0" d="M3805.12 1066.63c27.11,189.77 -27.11,298.21 -189.77,325.32 -81.33,-189.77 54.22,-379.54 216.88,-379.54l-27.11 54.22 0 0z"/>
    <path class="fil0" d="M2070.08 2042.59c54.22,-162.66 0,-271.1 -162.66,-325.32l27.11 54.22c-54.22,135.55 0,243.99 135.55,271.1l0 0z"/>
    <path class="fil0" d="M2259.85 2205.25c81.33,-108.44 81.33,-243.99 -81.33,-352.43l27.11 54.22c-81.33,135.55 -54.22,243.99 54.22,298.21z"/>
    <path class="fil0" d="M2395.4 2476.36c108.44,-108.44 108.44,-216.88 0,-352.43l0 54.22c-108.44,108.44 -108.44,216.88 0,298.21l0 0z"/>
    <path class="fil0" d="M2449.62 2720.35c135.55,-54.22 189.77,-162.66 108.44,-325.32l-27.11 54.22c-108.44,81.33 -162.66,162.66 -81.33,271.1l0 0z"/>
    <path class="fil0" d="M2503.84 3018.56c162.66,-54.22 216.88,-162.66 162.66,-325.32l-27.11 54.22c-135.55,54.22 -189.77,162.66 -135.55,271.1z"/>
    <path class="fil0" d="M2503.84 3316.77c162.66,-27.11 243.99,-135.55 189.77,-298.21l-27.11 54.22c-135.55,27.11 -189.77,135.55 -162.66,243.99z"/>
    <path class="fil0" d="M2341.18 3316.77c-162.66,0 -243.99,-81.33 -243.99,-243.99l27.11 27.11c162.66,27.11 216.88,81.33 216.88,216.88z"/>
    <path class="fil0" d="M2341.18 3018.56c-162.66,54.22 -271.1,0 -298.21,-189.77l54.22 54.22c135.55,-27.11 216.88,27.11 243.99,135.55l0 0z"/>
    <path class="fil0" d="M2314.07 2747.46c-162.66,81.33 -271.1,27.11 -325.32,-135.55l54.22 27.11c135.55,-54.22 243.99,0 271.1,108.44z"/>
    <path class="fil0" d="M2259.85 2530.58c-162.66,54.22 -271.1,0 -325.32,-162.66l54.22 27.11c135.55,-27.11 216.88,0 271.1,135.55l0 0z"/>
    <path class="fil0" d="M2151.41 2259.47c-108.44,108.44 -243.99,108.44 -352.43,-27.11l54.22 0c135.55,-81.33 216.88,-81.33 298.21,27.11l0 0z"/>
    <path class="fil0" d="M1988.75 2096.81c-108.44,108.44 -243.99,135.55 -352.43,0l54.22 0c108.44,-81.33 216.88,-108.44 298.21,0l0 0z"/>
    <path class="fil1" d="M3994.89 1825.71c243.99,460.87 243.99,1003.07 -27.11,1436.83l325.32 81.33c81.33,-162.66 108.44,-325.32 135.55,-487.98 216.88,27.11 487.98,-27.11 813.3,-162.66 -325.32,-27.11 -596.42,-81.33 -786.19,-189.77 0,-189.77 -27.11,-379.54 -108.44,-569.31 243.99,-108.44 460.87,-298.21 650.64,-542.2 -135.55,108.44 -379.54,162.66 -704.86,216.88 -108.44,135.55 -135.55,135.55 -298.21,216.88l0 0z"/>
    <path class="fil1" d="M1690.54 3560.76c-487.98,-487.98 -569.31,-1247.06 -189.77,-1816.37 406.65,-569.31 1138.62,-813.3 1762.15,-542.2 108.44,-108.44 189.77,-189.77 243.99,-243.99 -162.66,-54.22 -298.21,-108.44 -460.87,-135.55 0,-243.99 -54.22,-515.09 -189.77,-813.3 -27.11,406.65 -81.33,650.64 -162.66,786.19 -189.77,0 -379.54,27.11 -569.31,108.44 -135.55,-325.32 -325.32,-542.2 -515.09,-650.64 189.77,460.87 243.99,704.86 189.77,786.19 -135.55,108.44 -298.21,216.88 -406.65,379.54 -271.1,-189.77 -515.09,-271.1 -786.19,-298.21 325.32,216.88 515.09,406.65 569.31,596.42 -81.33,162.66 -135.55,325.32 -189.77,515.09 -298.21,-27.11 -569.31,27.11 -786.19,135.55 352.43,27.11 623.53,108.44 759.08,216.88 0,162.66 54.22,352.43 108.44,515.09 -243.99,135.55 -433.76,325.32 -623.53,542.2 379.54,-162.66 650.64,-243.99 759.08,-216.88 27.11,81.33 81.33,135.55 135.55,216.88l352.43 -81.33 0 0z"/>
    <path class="fil0" d="M3073.15 3425.21c-189.77,27.11 -379.54,81.33 -596.42,108.44 0,-921.74 -189.77,-1409.72 -569.31,-1545.27 -54.22,-162.66 -135.55,-216.88 -298.21,-189.77 54.22,135.55 162.66,216.88 298.21,216.88 487.98,162.66 515.09,1301.28 487.98,1545.27 -623.53,162.66 -1355.5,325.32 -2385.68,298.21 2575.45,921.74 2765.22,-379.54 5340.67,135.55l0 0c-867.52,-596.42 -1518.16,-677.75 -2168.8,-596.42 -27.11,-1111.51 189.77,-1789.26 650.64,-2033.25 162.66,27.11 298.21,-81.33 379.54,-271.1 -189.77,-27.11 -325.32,54.22 -406.65,243.99 -596.42,298.21 -731.97,975.96 -731.97,2087.47l0 0z"/>
    <path class="fil0" d="M4943.74 4346.95c-1301.28,-813.3 -1789.26,81.33 -3415.86,27.11 1599.49,596.42 1979.03,-325.32 3415.86,-27.11z"/>
   </g>
   <path class="fil2" d="M5552.01 3072.77l76.64 -890.63 223.32 0 124.21 322.42c21.15,53.74 39.2,103.07 54.18,148 14.98,44.93 24.67,76.64 29.07,95.14l6.61 26.43c14.09,-58.14 44.93,-148 92.5,-269.57l125.53 -322.42 223.32 0 92.5 890.63 -203.5 0 -33.03 -344.89 -17.18 -260.32c-22.91,66.07 -54.62,152.85 -95.14,260.32l-125.54 335.64 -120.25 0 -124.21 -335.64c-20.26,-54.62 -37.44,-103.51 -51.53,-146.67 -14.1,-43.17 -23.35,-73.12 -27.75,-89.86l-6.61 -23.79c0,62.55 -3.96,149.32 -11.89,260.32l-27.75 344.89 -203.5 0zm1460.16 -346.21l214.07 0 -9.25 -31.71c-25.55,-86.34 -46.47,-159.89 -62.77,-220.68 -16.3,-60.78 -26.21,-99.99 -29.73,-117.6l-5.29 -26.43c-7.04,48.45 -39.64,170.02 -97.78,364.71l-9.25 31.71zm317.14 346.21l-54.18 -182.35 -311.85 0 -54.18 182.35 -212.75 0 297.32 -890.63 256.35 0 297.32 890.63 -218.03 0zm347.53 0l0 -890.63 203.49 0 0 890.63 -203.49 0zm981.8 -890.63l0 163.85 -216.71 0 0 726.78 -204.82 0 0 -726.78 -218.03 0 0 -163.85 639.56 0zm330.36 728.1l348.85 0 0 162.53 -553.67 0 0 -890.63 548.39 0 0 162.53 -343.57 0 0 202.18 306.57 0 0 161.21 -306.57 0 0 202.18zm527.25 162.53l0 -890.63 203.49 0 0 890.63 -203.49 0zm979.16 -346.21l214.07 0 -9.25 -31.71c-25.55,-86.34 -46.47,-159.89 -62.77,-220.68 -16.3,-60.78 -26.21,-99.99 -29.73,-117.6l-5.29 -26.43c-7.04,48.45 -39.64,170.02 -97.78,364.71l-9.25 31.71zm317.14 346.21l-54.18 -182.35 -311.85 0 -54.18 182.35 -212.75 0 297.32 -890.63 256.35 0 297.32 890.63 -218.03 0zm537.81 -178.39l329.03 0 0 178.39 -532.53 0 0 -890.63 203.5 0 0 712.24zm421.53 178.39l76.64 -890.63 223.32 0 124.21 322.42c21.15,53.74 39.2,103.07 54.18,148 14.98,44.93 24.67,76.64 29.07,95.14l6.61 26.43c14.09,-58.14 44.93,-148 92.5,-269.57l125.53 -322.42 223.32 0 92.5 890.63 -203.5 0 -33.03 -344.89 -17.18 -260.32c-22.91,66.07 -54.62,152.85 -95.14,260.32l-125.54 335.64 -120.25 0 -124.21 -335.64c-20.26,-54.62 -37.44,-103.51 -51.53,-146.67 -14.1,-43.17 -23.35,-73.12 -27.75,-89.86l-6.61 -23.79c0,62.55 -3.96,149.32 -11.89,260.32l-27.75 344.89 -203.5 0zm1460.16 -346.21l214.07 0 -9.25 -31.71c-25.55,-86.34 -46.47,-159.89 -62.77,-220.68 -16.3,-60.78 -26.21,-99.99 -29.73,-117.6l-5.29 -26.43c-7.04,48.45 -39.64,170.02 -97.78,364.71l-9.25 31.71zm317.14 346.21l-54.18 -182.35 -311.85 0 -54.18 182.35 -212.75 0 297.32 -890.63 256.35 0 297.32 890.63 -218.03 0zm992.37 -852.31l0 195.57c-66.07,-40.52 -139.63,-60.79 -220.67,-60.79 -71.36,0 -131.26,24.89 -179.71,74.66 -48.46,49.78 -72.68,116.51 -72.68,200.2 0,81.93 24.22,146.89 72.68,194.91 48.45,48.01 111,72.01 187.64,72.01 82.81,0 153.72,-21.14 212.74,-63.43l0 199.54c-53.73,33.47 -131.26,50.21 -232.56,50.21 -130.38,0 -239.4,-42.06 -327.05,-126.19 -87.66,-84.13 -131.48,-193.15 -131.48,-327.05 0,-135.67 42.5,-246.23 127.51,-331.68 85.01,-85.45 195.79,-128.17 332.34,-128.17 100.42,0 177.51,16.73 231.24,50.21zm356.78 689.78l348.85 0 0 162.53 -553.67 0 0 -890.63 548.39 0 0 162.53 -343.57 0 0 202.18 306.57 0 0 161.21 -306.57 0 0 202.18zm514.03 162.53l0 -890.63 223.32 0 207.46 368.67c29.07,51.98 54.4,100.65 75.98,146.02 21.59,45.37 35.46,77.3 41.63,95.8l10.57 29.07c-8.81,-65.19 -13.22,-155.48 -13.22,-270.89l0 -368.67 203.5 0 0 890.63 -223.32 0 -212.74 -368.67c-28.19,-47.57 -53.08,-94.48 -74.66,-140.73 -21.59,-46.25 -36.34,-80.39 -44.27,-102.41l-10.57 -33.04c13.21,79.29 19.82,171.34 19.82,276.18l0 368.67 -203.5 0z"/>
  </g>
 </g>
</svg>
