<?xml version="1.0" encoding="UTF-8"?>
<!DOCTYPE svg PUBLIC "-//W3C//DTD SVG 1.1//EN" "http://www.w3.org/Graphics/SVG/1.1/DTD/svg11.dtd">
<!-- Creator: CorelDRAW -->
<svg xmlns="http://www.w3.org/2000/svg" xml:space="preserve" width="281.601mm" height="89.408mm" version="1.1" style="shape-rendering:geometricPrecision; text-rendering:geometricPrecision; image-rendering:optimizeQuality; fill-rule:evenodd; clip-rule:evenodd"
viewBox="0 0 28160.12 8940.8"
 xmlns:xlink="http://www.w3.org/1999/xlink"
 xmlns:xodm="http://www.corel.com/coreldraw/odm/2003">
 <defs>
  <style type="text/css">
   <![CDATA[
    .fil0 {fill:#FEFEFE}
    .fil1 {fill:#FEFEFE;fill-rule:nonzero}
   ]]>
  </style>
 </defs>
 <g id="Capa_x0020_1">
  <metadata id="CorelCorpID_0Corel-Layer"/>
  <g id="_2419501288784">
   <g>
    <path class="fil0" d="M7955.73 2952.12c-274.09,-274.09 -548.19,-274.09 -753.76,0 274.09,342.61 753.76,274.09 890.8,0l-137.04 0z"/>
    <path class="fil0" d="M7544.59 3294.73c-342.62,-205.56 -548.18,-205.56 -753.75,68.53 274.09,274.08 685.23,205.56 890.8,-68.53l-205.57 0 68.52 0z"/>
    <path class="fil0" d="M7201.97 3774.4c-411.13,-137.05 -616.7,-68.52 -685.23,274.09 342.62,205.57 753.75,0 822.27,-342.62l-137.04 68.52 0 0 0 0.01z"/>
    <path class="fil0" d="M7064.93 4322.58c-411.14,-68.52 -616.71,0 -685.24,342.62 411.14,137.05 753.76,-137.05 822.28,-411.14l-137.05 68.52 0.01 0z"/>
    <path class="fil0" d="M6927.88 5007.81c-411.14,-137.05 -548.19,0 -616.71,342.61 342.62,137.05 685.24,-137.04 753.76,-479.66l-137.05 137.05z"/>
    <path class="fil0" d="M6790.84 5624.52c-411.14,0 -548.19,137.05 -548.19,479.66 411.14,68.52 685.23,-274.09 685.23,-616.7l-137.04 137.04 0 0 0 0z"/>
    <path class="fil0" d="M5420.37 5487.47c411.14,137.05 548.19,274.09 411.14,616.71 -411.14,0 -616.7,-479.67 -479.66,-753.76l68.52 137.05 0 0z"/>
    <path class="fil0" d="M5557.42 4665.2c342.62,137.05 479.66,342.61 274.09,685.23 -342.62,-137.05 -479.66,-548.18 -342.62,-822.27l68.53 137.04 0 0 0 0z"/>
    <path class="fil0" d="M5762.99 3842.92c342.62,205.57 411.14,411.14 274.09,685.23 -411.14,-137.05 -479.66,-548.18 -342.62,-822.27l68.52 137.04 0 0 0.01 0z"/>
    <path class="fil0" d="M6105.61 3226.21c274.08,205.57 342.61,411.14 137.04,685.24 -411.13,-205.57 -411.13,-616.71 -205.57,-890.8l68.53 205.56z"/>
    <path class="fil0" d="M6653.79 2540.98c205.57,274.09 137.05,548.19 -137.05,685.23 -274.09,-274.08 -137.05,-753.75 137.05,-890.8l0 205.57 0 0z"/>
    <path class="fil0" d="M7339.02 2061.33c68.52,411.13 0,616.7 -342.61,685.23 -137.05,-411.14 137.04,-753.76 479.66,-822.28l-137.05 137.05 0 0 0 0z"/>
    <path class="fil0" d="M3981.4 3979.97c137.04,-342.62 0,-548.19 -342.62,-616.71l68.52 68.52c-68.52,342.62 68.52,479.67 274.09,548.19l0 0 0.01 0z"/>
    <path class="fil0" d="M4324.01 4322.58c205.56,-274.09 205.56,-479.66 -68.52,-685.23l0 68.52c-137.05,274.09 -137.05,479.66 68.52,616.71l0 0z"/>
    <path class="fil0" d="M4598.1 4802.24c274.09,-137.05 274.09,-411.14 68.52,-685.23l0 137.05c-205.57,205.56 -205.57,411.13 -68.52,548.18l0 0z"/>
    <path class="fil0" d="M4735.15 5281.9c274.09,-68.52 342.61,-342.61 205.57,-616.7l0 68.52c-274.09,205.57 -342.62,342.61 -205.57,548.18l0 0z"/>
    <path class="fil0" d="M4872.19 5898.61c274.09,-137.05 342.62,-342.62 274.09,-616.71l-68.52 68.52c-274.09,137.05 -342.62,274.09 -205.57,548.19z"/>
    <path class="fil0" d="M4872.19 6446.79c342.62,-68.52 411.14,-205.57 342.62,-548.18l0 68.52c-342.62,68.52 -411.14,274.09 -342.62,479.66z"/>
    <path class="fil0" d="M4529.57 6446.79c-274.08,68.52 -479.66,-137.05 -479.66,-479.66l68.52 68.52c274.09,68.52 411.14,137.05 411.14,411.14l0 0z"/>
    <path class="fil0" d="M4529.57 5898.61c-342.61,68.52 -479.66,0 -616.7,-342.62l137.05 68.52c274.09,-68.52 411.13,0 479.66,274.09l0 0 -0.01 0.01z"/>
    <path class="fil0" d="M4461.05 5350.42c-274.09,137.05 -479.66,68.52 -616.7,-274.09l68.52 68.53c342.62,-68.53 479.66,0 548.18,205.56z"/>
    <path class="fil0" d="M4324.01 4939.29c-274.09,137.04 -479.67,0 -616.71,-274.09l137.05 0c274.09,-68.52 411.14,0 479.66,274.09l0 0 0 0z"/>
    <path class="fil0" d="M4186.96 4391.1c-274.08,205.57 -479.66,205.57 -685.23,-68.52l68.52 68.52c274.09,-205.57 411.14,-205.57 616.71,0l0 0 0 0z"/>
    <path class="fil0" d="M3844.35 4117.01c-205.57,205.57 -479.66,205.57 -685.23,0l68.52 0c205.57,-205.56 411.13,-205.56 616.7,0l0 0 0.01 0z"/>
    <path class="fil0" d="M7750.16 3568.83c479.66,890.8 479.66,1918.64 -68.52,2809.44l616.7 137.05c137.05,-274.09 274.09,-616.71 342.62,-959.32 342.61,68.52 890.8,-68.52 1576.02,-274.09 -685.23,-68.52 -1164.89,-205.57 -1507.5,-411.14 -68.52,-411.13 -137.05,-753.75 -274.09,-1096.37 479.66,-205.56 890.8,-548.18 1301.94,-1027.84 -342.62,137.04 -753.76,274.09 -1438.99,342.61 -205.57,274.09 -205.57,342.62 -548.18,479.67l0 0 0 -0.01z"/>
    <path class="fil0" d="M3227.64 6994.98c-959.32,-959.32 -1096.37,-2466.83 -342.62,-3631.72 753.75,-1096.37 2192.74,-1507.51 3426.15,-1027.85 205.57,-205.57 342.61,-342.62 479.66,-479.67 -274.09,-137.04 -616.7,-205.56 -890.8,-274.08 0,-479.67 -137.05,-959.33 -342.61,-1576.03 -68.53,753.75 -205.57,1301.94 -342.62,1507.5 -411.14,68.53 -753.75,137.05 -1096.37,205.57 -274.09,-548.18 -616.7,-1027.84 -1027.85,-1233.41 342.62,890.8 479.67,1370.45 411.14,1576.02 -342.62,137.05 -616.7,411.14 -822.27,685.23 -479.67,-342.61 -1027.85,-548.18 -1507.51,-548.18 616.71,411.14 959.32,753.75 1096.37,1096.37 -205.57,342.61 -274.09,685.23 -342.62,1027.85 -616.7,0 -1164.88,68.52 -1576.02,274.08 685.23,68.53 1233.42,205.57 1507.5,411.14 0,342.62 68.52,685.23 137.05,1027.85 -411.13,274.09 -822.27,616.7 -1164.89,1096.37 753.76,-342.62 1233.42,-479.67 1438.99,-479.67 137.04,137.05 205.57,342.62 342.61,479.67l616.71 -137.05 0 0 0 0.01z"/>
    <path class="fil0" d="M5900.04 6652.36c-342.62,68.52 -685.23,137.05 -1096.37,274.09 0,-1781.6 -411.14,-2809.44 -1096.37,-3083.54 -137.05,-274.09 -342.61,-411.13 -616.7,-342.61 137.04,274.09 274.09,411.13 616.7,411.13 890.8,342.62 959.32,2535.36 890.8,3015.01 -1233.41,342.62 -2603.87,685.23 -4591.04,616.71 5002.18,1781.6 5344.79,-753.76 10415.49,205.57l0 0c-1713.07,-1164.89 -2946.49,-1301.94 -4248.42,-1096.37 -68.52,-2192.74 342.61,-3494.68 1233.41,-3974.33 342.62,0 616.71,-137.05 822.27,-548.19 -411.13,-68.52 -685.23,68.52 -822.27,479.67 -1164.89,548.18 -1438.98,1850.12 -1438.98,4042.85l-68.52 0 0 0.01z"/>
    <path class="fil0" d="M9600.28 8433.96c-2535.35,-1576.03 -3494.67,205.57 -6646.73,137.05 3152.06,1096.37 3837.29,-685.23 6646.73,-137.05z"/>
   </g>
   <path class="fil1" d="M11417.59 5173.87l120.89 -1404.87 352.26 0 195.93 508.59c33.36,84.76 61.84,162.58 85.46,233.45 23.63,70.87 38.91,120.89 45.86,150.07l10.42 41.69c22.24,-91.71 70.87,-233.45 145.91,-425.21l198.02 -508.59 352.26 0 145.9 1404.87 -320.99 0 -52.11 -544.02 -27.1 -410.63c-36.13,104.22 -86.15,241.1 -150.07,410.63l-198.02 529.43 -189.68 0 -195.93 -529.43c-31.96,-86.16 -59.06,-163.28 -81.29,-231.37 -22.23,-68.09 -36.83,-115.34 -43.77,-141.74l-10.43 -37.52c0,98.66 -6.25,235.54 -18.75,410.63l-43.78 544.02 -320.99 0zm2303.24 -546.11l337.67 0 -14.59 -50.02c-40.3,-136.18 -73.3,-252.21 -99.01,-348.09 -25.71,-95.89 -41.34,-157.72 -46.9,-185.51l-8.34 -41.69c-11.11,76.43 -62.53,268.19 -154.24,575.29l-14.59 50.02zm500.25 546.11l-85.46 -287.64 -491.91 0 -85.46 287.64 -335.59 0 468.99 -1404.87 404.37 0 468.98 1404.87 -343.92 0zm548.19 0l0 -1404.87 320.99 0 0 1404.87 -320.99 0zm1548.69 -1404.87l0 258.46 -341.84 0 0 1146.41 -323.08 0 0 -1146.41 -343.92 0 0 -258.46 1008.84 0zm521.09 1148.49l550.28 0 0 256.38 -873.36 0 0 -1404.87 865.02 0 0 256.38 -541.94 0 0 318.91 483.58 0 0 254.29 -483.58 0 0 318.91zm831.67 256.38l0 -1404.87 320.99 0 0 1404.87 -320.99 0zm1544.53 -546.11l337.67 0 -14.59 -50.02c-40.3,-136.18 -73.3,-252.21 -99.01,-348.09 -25.71,-95.89 -41.34,-157.72 -46.9,-185.51l-8.34 -41.69c-11.11,76.43 -62.53,268.19 -154.24,575.29l-14.59 50.02zm500.25 546.11l-85.46 -287.64 -491.91 0 -85.46 287.64 -335.59 0 468.99 -1404.87 404.37 0 468.98 1404.87 -343.92 0zm848.34 -281.39l519.01 0 0 281.39 -840.01 0 0 -1404.87 321 0 0 1123.48zm664.92 281.39l120.89 -1404.87 352.26 0 195.93 508.59c33.36,84.76 61.84,162.58 85.46,233.45 23.63,70.87 38.91,120.89 45.86,150.07l10.42 41.69c22.24,-91.71 70.87,-233.45 145.91,-425.21l198.02 -508.59 352.26 0 145.9 1404.87 -320.99 0 -52.11 -544.02 -27.1 -410.63c-36.13,104.22 -86.15,241.1 -150.07,410.63l-198.02 529.43 -189.68 0 -195.93 -529.43c-31.96,-86.16 -59.06,-163.28 -81.29,-231.37 -22.23,-68.09 -36.83,-115.34 -43.77,-141.74l-10.43 -37.52c0,98.66 -6.25,235.54 -18.75,410.63l-43.78 544.02 -320.99 0zm2303.24 -546.11l337.67 0 -14.59 -50.02c-40.3,-136.18 -73.3,-252.21 -99.01,-348.09 -25.71,-95.89 -41.34,-157.72 -46.9,-185.51l-8.34 -41.69c-11.11,76.43 -62.53,268.19 -154.24,575.29l-14.59 50.02zm500.25 546.11l-85.46 -287.64 -491.91 0 -85.46 287.64 -335.59 0 468.99 -1404.87 404.37 0 468.98 1404.87 -343.92 0zm1565.37 -1344.43l0 308.49c-104.22,-63.92 -220.25,-95.88 -348.1,-95.88 -112.55,0 -207.04,39.26 -283.47,117.77 -76.43,78.51 -114.64,183.77 -114.64,315.78 0,129.23 38.21,231.72 114.64,307.45 76.43,75.73 175.09,113.6 295.98,113.6 130.62,0 242.48,-33.35 335.59,-100.05l0 314.74c-84.77,52.8 -207.05,79.21 -366.85,79.21 -205.66,0 -377.63,-66.36 -515.89,-199.06 -138.26,-132.71 -207.39,-304.67 -207.39,-515.89 0,-213.99 67.04,-388.39 201.14,-523.18 134.09,-134.79 308.83,-202.18 524.22,-202.18 158.41,0 280,26.4 364.77,79.2zm562.77 1088.05l550.28 0 0 256.38 -873.36 0 0 -1404.87 865.02 0 0 256.38 -541.94 0 0 318.91 483.58 0 0 254.29 -483.58 0 0 318.91zm810.82 256.38l0 -1404.87 352.26 0 327.25 581.54c45.86,81.99 85.81,158.76 119.85,230.32 34.05,71.57 55.94,121.94 65.66,151.12l16.68 45.86c-13.9,-102.83 -20.85,-245.26 -20.85,-427.3l0 -581.54 321 0 0 1404.87 -352.26 0 -335.59 -581.54c-44.46,-75.04 -83.72,-149.04 -117.76,-221.99 -34.05,-72.95 -57.33,-126.8 -69.83,-161.54l-16.68 -52.11c20.85,125.07 31.27,270.28 31.27,435.64l0 581.54 -321 0z"/>
  </g>
 </g>
</svg>
