<?xml version="1.0" encoding="UTF-8"?>
<!DOCTYPE svg PUBLIC "-//W3C//DTD SVG 1.1//EN" "http://www.w3.org/Graphics/SVG/1.1/DTD/svg11.dtd">
<!-- Creator: CorelDRAW -->
<svg xmlns="http://www.w3.org/2000/svg" xml:space="preserve" width="131.403mm" height="131.403mm" version="1.1" style="shape-rendering:geometricPrecision; text-rendering:geometricPrecision; image-rendering:optimizeQuality; fill-rule:evenodd; clip-rule:evenodd"
viewBox="0 0 13140.26 13140.26"
 xmlns:xlink="http://www.w3.org/1999/xlink"
 xmlns:xodm="http://www.corel.com/coreldraw/odm/2003">
 <defs>
  <style type="text/css">
   <![CDATA[
    .fil0 {fill:#F34500;fill-rule:nonzero}
   ]]>
  </style>
 </defs>
 <g id="Capa_x0020_1">
  <metadata id="CorelCorpID_0Corel-Layer"/>
  <g id="_2075502149008">
   <path class="fil0" d="M13131.8 7405.99c0,-921.6 -446.83,-1801.71 -1195.28,-2354.16 -152.61,-113.03 -341.84,-175.05 -532.55,-175.05 -238.76,0 -462.49,95.46 -626.75,257.81 -30.69,-25.61 -58.63,-53.76 -90.38,-78.11 -117.48,-89.75 -258.45,-143.09 -403.23,-165.1l93.35 -1026.37c2.12,-24.55 3.18,-49.32 3.18,-74.08 0,-451.7 -367.45,-819.15 -819.15,-819.15l-55.04 0.01c-451.7,0 -819.15,367.45 -819.15,819.15 0,24.77 1.06,49.53 3.39,74.3l93.77 1030.82c-134.2,25.4 -263.95,77.26 -373.59,158.96 -37.89,28.36 -71.54,60.96 -107.95,90.81 -18.84,-19.47 -38.74,-37.68 -59.27,-55.25 12.07,-70.49 20.32,-141.82 20.32,-213.78 0,-268.82 -83.82,-525.99 -239.18,-740.83 155.36,-214.84 239.18,-471.81 239.18,-740.83 0,-724.75 -613.2,-1312.12 -1343.87,-1267.67 -135.89,-389.47 -452.76,-683.05 -842.22,-796.29 -257.81,-321.52 -646.43,-499.96 -1062.78,-473.71 -175.26,-502.29 -649.82,-849 -1196.13,-849 -458.26,0 -875.45,245.11 -1100.24,635.64 -560.49,18.84 -1045,414.44 -1183.85,953.35 -655.32,244.48 -1102.57,878.84 -1102.57,1586.02 0,567.06 278.98,1085.43 740.62,1398.69 -69.64,158.96 -105.62,330.84 -105.62,506.31 0,381 169.33,735.12 459.95,974.94 -24.34,98.21 -36.62,197.06 -36.62,295.06 0,648.55 488.95,1185.33 1117.6,1260.9l468.21 1311.28c-239.82,176.74 -444.08,397.93 -601.35,651.93l-1108.92 -246.38c-42.12,-9.74 -85.51,-14.39 -129.12,-14.39 -327.03,0 -593.09,266.07 -593.09,593.09l0 83.82c0,59.27 11.43,115.57 27.73,169.76l-27.74 -0.04c-350.1,0 -635,284.9 -635,635 0,350.1 284.9,635 635,635l27.73 0c-16.3,54.19 -27.73,110.49 -27.73,169.76l0 83.82c0,327.03 266.07,593.09 593.09,593.09 43.6,0 87,-4.66 128.69,-14.18l1109.35 -246.59c410.85,663.36 1143,1107.44 1978.87,1107.44l49.75 0c117.69,0 236.86,-9.1 353.91,-27.09l7258.26 -1116.54c588.86,-90.81 1016.42,-588.86 1016.42,-1184.7 0,-476.46 -275.8,-886.46 -686.44,-1079.71 438.57,-523.88 686.44,-1188.51 686.44,-1872.83l0 -444.93zm-2702.35 -2013.16c631.83,483.02 1009.02,1252.43 1009.02,2058.67l0 777.45c0,433.92 -108.16,858.73 -312,1237.83l-1697.36 -261.2c-69.85,-307.13 -107.32,-620.82 -107.32,-935.78l0 -859.37c0,-213.36 21.38,-426.51 53.76,-637.75 51.86,4.45 103.51,9.1 157.9,9.1 603.46,0 1058.33,-273.05 1058.33,-635 0,-199.81 -138.22,-377.19 -377.61,-493.61l31.12 -342.48c66.04,13.34 129.54,40.01 184.15,82.13l0.01 0.01zm-923.5 -1997.71l55.24 0c218.23,0 395.82,177.59 395.82,395.82 0,12.07 -0.42,24.13 -1.69,35.98l-192.19 2113.92 161.5 51.86c185.42,59.27 243.84,137.37 243.84,154.09 0,52.71 -225.21,211.67 -635,211.67 -409.79,0 -635,-158.96 -635,-211.67 0,-16.72 58.42,-94.83 243.84,-154.31l161.5 -51.86 -192.19 -2113.7c-1.06,-12.07 -1.48,-24.13 -1.48,-35.98 0,-218.23 177.59,-395.82 395.82,-395.82l-0.01 0zm-683.69 1922.57l30.48 335.49c-239.4,116.42 -377.61,293.79 -377.61,493.61 0,233.26 190.29,428.2 485.99,538.27 -37.89,240.24 -62.65,482.81 -62.65,725.38l0 859.37c0,290.83 27.94,581.24 82.13,866.78l-1247.78 -191.98c-67.95,-232.62 -104.35,-472.44 -104.35,-715.86l0 -777.45c0,-804.97 386.93,-1574.17 1035.05,-2057.19 47.2,-35.14 101.6,-60.96 158.75,-76.41l-0.01 -0.01zm-2287.48 3442.54c-114.94,-290.83 -176.32,-595.42 -176.32,-909.32l0 -445.14c0,-787.82 382.69,-1540.51 1023.41,-2013.8 80.43,-59.27 180.34,-91.86 281.09,-91.86 127.85,0 245.53,51.44 331.68,137.58 -499.11,546.95 -789.52,1265.34 -789.52,2013.8l0 777.45c0,218.23 26.04,434.13 73.24,645.8l-743.58 -114.51zm19.9 -6359.73l38.52 217.81 215.9 -48.05c65.62,-14.61 125.94,-21.8 184.36,-21.8 466.94,0 846.67,379.73 846.67,846.67 0,222.46 -86.36,432.86 -242.99,592.46l-145.63 148.38 145.63 148.38c156.63,159.6 242.99,369.99 242.99,592.46 0,6.35 -1.27,12.7 -1.27,19.26 -57.36,-11.43 -115.78,-19.26 -175.9,-19.26 -190.71,0 -379.94,62.02 -532.55,174.84 -385.23,284.27 -688.55,656.17 -894.29,1075.06 -80.22,-249.77 -164.47,-488.95 -251.25,-716.07 195.79,-1034.2 922.02,-1632.8 929.43,-1638.94l-132.5 -164.89 -132.29 -165.31c-29.42,23.5 -601.98,491.07 -923.5,1334.56 -440.48,-1011.34 -856.19,-1665.61 -882.86,-1707.09l-356.24 229.02c5.72,8.68 328.51,516.47 704.22,1324.82 -633.1,-238.34 -1352.55,-172.51 -1393.83,-168.28l42.12 421.22c318.35,-31.96 1220.05,-16.51 1641.26,413.39 148.38,364.7 294.64,764.54 423.76,1192.95 -643.47,-329.99 -1411.18,-335.28 -1450.98,-335.28l0 423.33c9.95,0 952.29,6.35 1510.03,449.79 -17.36,127.42 -28.36,256.12 -28.36,386.08l0 445.14c0,285.96 44.03,565.57 125.73,836.51l-1203.75 -185.21c-63.5,-9.74 -127.64,-16.3 -191.98,-20.96 -466.94,0 -846.67,-382.69 -846.67,-852.81 0,-98.64 19.69,-199.81 58.21,-301.2l61.81 -161.93 -146.69 -92.71c-248.29,-157.06 -396.66,-423.97 -396.66,-714.38 0,-166.58 48.9,-328.08 141.39,-467.36l131.87 -198.12 -212.09 -107.74c-429.47,-218.44 -696.17,-651.93 -696.17,-1131.78 0,-563.25 378.46,-1064.9 920.54,-1220.05l131.45 -37.68 19.69 -135.26c60.33,-412.54 418.68,-723.69 833.33,-723.69 7.83,0 15.45,1.69 23.07,2.75 14.82,2.12 29.85,4.02 44.87,5.08l151.77 12.28 59.69 -140.12c133.56,-312.84 439.21,-514.99 778.93,-514.99 410.21,0 759.67,293.79 831.22,698.71l-0.01 0.01zm-3645.32 4804.62l-149.23 0c-466.94,0 -846.67,-379.73 -846.67,-846.67 0,-98.85 19.69,-200.03 58.21,-300.99l62.02 -161.93 -146.69 -92.71c-248.5,-157.06 -396.88,-423.97 -396.88,-714.38 0,-166.58 48.9,-328.08 141.39,-467.36l131.87 -198.12 -212.09 -107.74c-429.47,-218.44 -696.17,-651.93 -696.17,-1131.78 0,-563.25 378.46,-1064.9 920.33,-1220.05l131.45 -37.68 19.69 -135.26c60.54,-412.54 418.89,-723.69 833.54,-723.69 8.04,0 15.88,1.69 23.71,2.75 14.39,1.91 28.79,3.81 43.6,5.08l152.4 12.7 59.9 -140.76c133.35,-312.63 439,-514.77 778.72,-514.77 410.21,0 759.67,293.79 831.22,698.71l38.52 217.81 215.9 -48.05c65.62,-14.61 125.94,-21.8 184.36,-21.8 97.37,0 189.87,21.38 278.34,52.28 -311.15,91.02 -579.12,297.6 -743.59,583.35 -560.49,18.84 -1045,414.44 -1183.85,953.35 -655.32,244.48 -1102.57,878.84 -1102.57,1586.02 0,567.06 278.98,1085.43 740.62,1398.69 -69.64,158.96 -105.62,330.84 -105.62,506.31 0,381 169.33,735.12 459.95,975.15 -24.34,98.21 -36.62,196.85 -36.62,294.85 0,371.9 160.02,706.12 413.39,939.38 -125.73,36.41 -246.59,83.61 -362.59,139.7l-536.56 -1502.39zm-1842.56 2793.58l0 -83.82c0,-106.26 102.87,-188.17 206.8,-165.74l1007.32 223.94c-24.55,63.92 -46.57,128.91 -65.41,195.37l-978.96 0c-93.56,0 -169.76,-76.2 -169.76,-169.76l0.01 0.01zm-635 804.75c0,-116.63 95.04,-211.67 211.67,-211.67l593.08 0.01 899.16 0c-6.14,69.85 -10.58,140.12 -10.58,211.67 0,71.55 4.45,141.82 10.8,211.67l-899.38 -0.01 -593.09 0c-116.63,0 -211.67,-95.04 -211.67,-211.67l0.01 0zm841.37 1054.32c-100.33,21.59 -206.38,-59.69 -206.38,-165.74l0 -83.82c0,-93.56 76.2,-169.76 169.76,-169.76l978.75 0c18.84,66.46 41.06,131.45 65.41,195.37l-1007.54 223.95zm11435.29 -1054.32c0,385.45 -276.44,707.6 -657.23,766.23l-7258.05 1116.54c-96.1,14.82 -193.68,22.23 -289.98,22.23l-49.74 0c-1050.29,0 -1905,-854.71 -1905,-1905 0,-1050.29 854.71,-1905 1905,-1905l49.75 0c96.31,0 193.89,7.41 289.77,22.01l7258.05 1116.54c381,58.84 657.44,381 657.44,766.45l-0.01 0zm0 -2952.53c0,651.09 -263.53,1281.01 -722,1747.94l-420.58 -64.77c193.25,-405.98 295.91,-851.11 295.91,-1305.35l0 -777.45c0,-752.26 -286.6,-1474.26 -778.93,-2022.05 85.51,-80.65 198.97,-129.12 321.1,-129.12 100.97,0 200.66,32.6 281.09,92.29 640.72,472.86 1023.41,1225.76 1023.41,2013.59l0 444.92z"/>
   <polygon class="fil0" points="4241.8,9745.12 4665.13,9745.12 4665.13,11861.79 4241.8,11861.79 "/>
   <polygon class="fil0" points="5935.13,9745.12 6358.46,9745.12 6358.46,11861.79 5935.13,11861.79 "/>
   <polygon class="fil0" points="7628.46,9745.12 8051.8,9745.12 8051.8,11861.79 7628.46,11861.79 "/>
   <polygon class="fil0" points="9321.8,10168.45 9745.13,10168.45 9745.13,11438.45 9321.8,11438.45 "/>
   <polygon class="fil0" points="11015.13,10380.12 11438.46,10380.12 11438.46,11226.79 11015.13,11226.79 "/>
  </g>
 </g>
</svg>
